<svg width="38" height="32" viewBox="0 0 38 32" fill="none" xmlns="http://www.w3.org/2000/svg">
<path d="M34.2469 8.07083L27.75 11.325V6.83333C27.75 6.3471 27.5327 5.88079 27.1459 5.53697C26.7591 5.19315 26.2345 5 25.6875 5H7.125C6.03098 5 4.98177 5.38631 4.20818 6.07394C3.4346 6.76157 3 7.69421 3 8.66667V23.3333C3 24.3058 3.4346 25.2384 4.20818 25.9261C4.98177 26.6137 6.03098 27 7.125 27H25.6875C26.2345 27 26.7591 26.8068 27.1459 26.463C27.5327 26.1192 27.75 25.6529 27.75 25.1667V20.6567L34.2469 23.9108C34.4136 24.0076 34.606 24.0637 34.8048 24.0735C35.0036 24.0833 35.2018 24.0464 35.3794 23.9665C35.5571 23.8866 35.708 23.7665 35.8169 23.6184C35.9258 23.4702 35.989 23.2992 36 23.1225V8.85C35.9873 8.67407 35.9229 8.50419 35.8133 8.35727C35.7037 8.21036 35.5527 8.09156 35.3753 8.01273C35.1979 7.93389 35.0003 7.89777 34.8023 7.90796C34.6044 7.91816 34.4128 7.97431 34.2469 8.07083Z" fill="white"/>
</svg>
