<svg width="29" height="29" viewBox="0 0 29 29" fill="none" xmlns="http://www.w3.org/2000/svg">
<path d="M26.3945 0.90625H2.60547C1.75586 0.90625 0.90625 1.75586 0.90625 2.60547V21.7219C0.90625 22.5715 1.75586 23.4211 2.60547 23.4211H11.1016V25.1203C11.1016 26.3003 9.57091 26.8196 7.70312 26.8196V28.0938H21.2969V26.8191C19.4286 26.8191 17.8984 26.2998 17.8984 25.1199V23.4207H26.3945C27.2441 23.4207 28.0938 22.5711 28.0938 21.7215V2.60547C28.0938 1.75586 27.2441 0.90625 26.3945 0.90625ZM27.1875 21.7219C27.1875 22.0704 26.7425 22.5149 26.3945 22.5149H2.60547C2.25702 22.5149 1.8125 22.0704 1.8125 21.7219V20.0227H27.1875V21.7219Z" fill="white"/>
<path d="M14.5002 22.1469C14.735 22.1469 14.9253 21.9566 14.9253 21.7219C14.9253 21.4872 14.735 21.2969 14.5002 21.2969C14.2655 21.2969 14.0752 21.4872 14.0752 21.7219C14.0752 21.9566 14.2655 22.1469 14.5002 22.1469Z" fill="white"/>
</svg>
