<svg width="101" height="89" viewBox="0 0 101 89" fill="none" xmlns="http://www.w3.org/2000/svg">
<path d="M82.5335 89C94.2165 89 101 83.3716 101 72.8656C101 63.4852 94.9701 57.1065 85.1717 57.1065C79.5188 57.1065 75.3732 58.9825 73.1118 62.7346C70.8506 59.7328 69.3433 54.855 69.3433 47.3505C69.3433 31.2162 74.6194 16.5826 87.8096 3.07468C89.3172 1.57381 86.679 -1.05273 84.7949 0.448152C67.836 16.9578 57.2835 33.8428 57.2835 55.2301C57.2835 77.3683 66.7051 89 82.5335 89ZM25.25 89C36.9328 89 43.7165 83.3716 43.7165 72.8656C43.7165 63.4852 37.6866 57.1065 27.8881 57.1065C22.2351 57.1065 18.0896 58.9825 15.8283 62.7346C13.5672 59.7328 12.0597 54.855 12.0597 47.3505C12.0597 31.2162 17.3358 16.5826 30.5261 3.07468C32.0335 1.5738 29.3955 -1.05273 27.5112 0.448147C10.5523 16.9578 1.88345e-06 33.8428 0 55.2301C-1.94953e-06 77.368 9.42165 89 25.25 89Z" fill="#FF8901"/>
</svg>
